<svg width="88" height="40" viewBox="0 0 88 40" fill="none" xmlns="http://www.w3.org/2000/svg">
<path d="M17.0858 29.5409L17.0459 18.2834L11.5369 27.5449H9.58084L4.07186 18.523V29.5409H0V10.7784H3.59281L10.6188 22.4351L17.525 10.7784H21.0778L21.1178 29.5409H17.0858Z" fill="#3E4857"/>
<path d="M40.0798 26.0679V29.5409H25.5489V10.7784H39.7206V14.2914H29.8603V18.3633H38.5629V21.7565H29.8603V26.1078H40.0798V26.0679Z" fill="#3E4857"/>
<path d="M78.8423 29.1417L75.3693 24.1118H71.5369V29.1417H67.3852V11.1377H75.1697C76.7665 11.1377 78.1637 11.4172 79.3214 11.9361C80.479 12.4551 81.3972 13.2136 82.0359 14.2116C82.6747 15.1697 82.994 16.3273 82.994 17.6846C82.994 19.0419 82.6747 20.1597 82.0359 21.1577C81.3972 22.1158 80.479 22.8743 79.2814 23.3932L83.3134 29.1816H78.8423V29.1417ZM77.7645 15.3693C77.1257 14.8104 76.1677 14.5709 74.8902 14.5709H71.497V20.8383H74.8902C76.1277 20.8383 77.0858 20.5589 77.7645 20C78.4032 19.4411 78.7225 18.6826 78.7225 17.6846C78.7625 16.6866 78.4431 15.8882 77.7645 15.3693Z" fill="#9B27AF"/>
<path d="M64.99 27.5848L62.5948 25.4691C62.7146 25.3094 62.8343 25.1098 62.9541 24.9102C63.7924 23.513 64.2315 21.9162 64.2315 20.1198C64.2315 18.3633 63.7924 16.7665 62.9541 15.3293C62.1158 13.9321 60.9182 12.8144 59.4411 12.016C57.9641 11.2176 56.2874 10.8184 54.4112 10.8184C52.5349 10.8184 50.8583 11.2176 49.3413 12.016C47.8244 12.8144 46.6667 13.9321 45.8283 15.3293C44.99 16.7265 44.5509 18.3234 44.5509 20.1198C44.5509 21.8762 44.99 23.4731 45.8283 24.9102C46.6667 26.3074 47.8643 27.4252 49.3413 28.2236C50.8583 29.022 52.5349 29.4212 54.4112 29.4212C56.2874 29.4212 57.9641 29.022 59.4411 28.2236C59.6806 28.1038 59.9202 27.9441 60.1597 27.7844L62.7545 30.0599L64.99 27.5848ZM54.3713 25.9082C53.2934 25.9082 52.3353 25.6687 51.497 25.1896C50.6587 24.7106 49.98 24.0319 49.4611 23.1537C48.982 22.2755 48.7425 21.2774 48.7425 20.1597C48.7425 19.0419 48.982 18.0439 49.4611 17.1657C49.9401 16.2874 50.6188 15.6088 51.497 15.1297C52.3353 14.6507 53.3333 14.4112 54.3713 14.4112C55.4491 14.4112 56.4072 14.6507 57.2455 15.1297C58.0838 15.6088 58.7625 16.2874 59.2814 17.1657C59.7605 18.0439 60 19.0419 60 20.1597C60 21.1178 59.8004 21.9561 59.481 22.7146L57.4052 20.8782L55.1697 23.4331L57.2056 25.1896C56.3273 25.6687 55.4092 25.9082 54.3713 25.9082Z" fill="#9B27AF"/>
<path fill-rule="evenodd" clip-rule="evenodd" d="M44.8731 3.19361H49.3014V0H44.8703C43.1101 0 41.6767 1.43348 41.6767 3.19361V7.66467H44.8703V3.19649C44.8706 3.19602 44.8711 3.19551 44.8716 3.19498C44.8722 3.19445 44.8727 3.194 44.8731 3.19361Z" fill="#9B27AF"/>
<path fill-rule="evenodd" clip-rule="evenodd" d="M80.1198 0H84.5509C86.311 0 87.7445 1.43348 87.7445 3.19361V7.66467H84.5509V3.19649C84.5505 3.19602 84.5501 3.19551 84.5495 3.19498C84.549 3.19445 84.5485 3.194 84.548 3.19361H80.1198V0Z" fill="#9B27AF"/>
<path fill-rule="evenodd" clip-rule="evenodd" d="M41.6767 36.8064V32.3753H44.8703V36.8035C44.8706 36.804 44.8711 36.8045 44.8716 36.805C44.8722 36.8055 44.8727 36.806 44.8731 36.8064H49.3014V40H44.8703C43.1101 40 41.6767 38.5665 41.6767 36.8064Z" fill="#9B27AF"/>
<path fill-rule="evenodd" clip-rule="evenodd" d="M84.5509 36.8035V32.3753H87.7445V36.8064C87.7445 38.5665 86.311 40 84.5509 40H80.1198V36.8064H84.548C84.5485 36.806 84.549 36.8055 84.5495 36.805C84.5501 36.8045 84.5505 36.804 84.5509 36.8035Z" fill="#9B27AF"/>
</svg>
