<svg width="77" height="35" viewBox="0 0 77 35" fill="none" xmlns="http://www.w3.org/2000/svg">
<path d="M12.7853 24.5647L12.7652 16.1348L8.63058 23.0794H7.16539L3.05081 16.3154V24.5647H0V10.5149H2.68953L7.94816 19.2458L13.1265 10.5149H15.796L15.8361 24.5647H12.7853Z" fill="white"/>
<path d="M30.048 21.9554V24.5647H19.1695V10.5149H29.7871V13.1241H22.4009V16.1749H28.9241V18.7039H22.4009V21.9554H30.048Z" fill="white"/>
<path fill-rule="evenodd" clip-rule="evenodd" d="M70.2306 2.69612H73.5259V5.99138H76.222V2.69612C76.222 1.20709 75.0149 0 73.5259 0H70.2306V2.69612ZM36.9785 2.69612V0H33.6832C32.1942 0 30.9871 1.2071 30.9871 2.69612V5.99138H33.6832V2.69612H36.9785ZM33.6832 28.7586H30.9871V32.0539C30.9871 33.5429 32.1942 34.75 33.6832 34.75H36.9785V32.0539H33.6832V28.7586ZM70.2306 32.0539V34.75H73.5259C75.0149 34.75 76.222 33.5429 76.222 32.0539V28.7586H73.5259V32.0539H70.2306Z" fill="#2FC1A0"/>
<path d="M42.5049 21.554H35.9818L34.7374 24.5646H31.4056L37.6678 10.5148H40.8792L47.1614 24.5646H43.7493L42.5049 21.554ZM41.4813 19.0852L39.2534 13.7061L37.0255 19.0852H41.4813Z" fill="#2FC1A0"/>
<path d="M48.6191 10.5148H55.0017C56.5271 10.5148 57.8719 10.8092 59.036 11.398C60.2135 11.9733 61.1234 12.7896 61.7657 13.8466C62.4213 14.9037 62.7492 16.1348 62.7492 17.5397C62.7492 18.9447 62.4213 20.1757 61.7657 21.2328C61.1234 22.2899 60.2135 23.1128 59.036 23.7016C57.8719 24.2769 56.5271 24.5646 55.0017 24.5646H48.6191V10.5148ZM54.8412 21.8952C56.2461 21.8952 57.3634 21.5071 58.193 20.731C59.036 19.9416 59.4575 18.8778 59.4575 17.5397C59.4575 16.2017 59.036 15.1446 58.193 14.3685C57.3634 13.579 56.2461 13.1843 54.8412 13.1843H51.8706V21.8952H54.8412Z" fill="#2FC1A0"/>
<path d="M69.8177 24.8055C68.7071 24.8055 67.6299 24.6583 66.5862 24.3639C65.5559 24.0562 64.7263 23.6614 64.0974 23.1797L65.2013 20.731C65.8034 21.1726 66.5193 21.5272 67.3489 21.7948C68.1785 22.0624 69.0081 22.1962 69.8377 22.1962C70.761 22.1962 71.4434 22.0624 71.885 21.7948C72.3265 21.5138 72.5473 21.1458 72.5473 20.6909C72.5473 20.3564 72.4135 20.0821 72.1459 19.868C71.8917 19.6405 71.5572 19.4599 71.1424 19.3261C70.7409 19.1923 70.1923 19.0451 69.4965 18.8845C68.4261 18.6303 67.5496 18.376 66.8672 18.1218C66.1848 17.8676 65.596 17.4594 65.1009 16.8975C64.6192 16.3355 64.3784 15.5861 64.3784 14.6495C64.3784 13.8333 64.5992 13.0973 65.0407 12.4417C65.4823 11.7726 66.1446 11.2441 67.0278 10.856C67.9243 10.468 69.0148 10.274 70.2994 10.274C71.1959 10.274 72.0723 10.381 72.9287 10.5951C73.785 10.8092 74.5344 11.117 75.1766 11.5184L74.1731 13.9871C72.8752 13.2512 71.5772 12.8832 70.2793 12.8832C69.3694 12.8832 68.6937 13.0304 68.2521 13.3248C67.8239 13.6192 67.6098 14.0072 67.6098 14.4889C67.6098 14.9706 67.8574 15.3319 68.3525 15.5728C68.8609 15.8002 69.6303 16.0277 70.6606 16.2552C71.7311 16.5094 72.6075 16.7636 73.29 17.0179C73.9724 17.2721 74.5544 17.6735 75.0362 18.2222C75.5312 18.7708 75.7788 19.5134 75.7788 20.45C75.7788 21.2529 75.5513 21.9888 75.0964 22.6579C74.6548 23.3135 73.9858 23.8354 73.0892 24.2234C72.1927 24.6115 71.1022 24.8055 69.8177 24.8055Z" fill="#2FC1A0"/>
</svg>
