<svg width="91" height="35" viewBox="0 0 91 35" fill="none" xmlns="http://www.w3.org/2000/svg">
<path d="M12.7853 24.5646L12.7652 16.1348L8.63058 23.0794H7.16539L3.05081 16.3154V24.5646H0V10.5149H2.68953L7.94816 19.2458L13.1265 10.5149H15.796L15.8361 24.5646H12.7853Z" fill="white"/>
<path d="M30.048 21.9554V24.5646H19.1695V10.5149H29.7871V13.1241H22.4009V16.1749H28.9241V18.7039H22.4009V21.9554H30.048Z" fill="white"/>
<path d="M84.9096 2.69612H88.2048V5.99138H90.9009V2.69612C90.9009 1.20709 89.6938 0 88.2048 0H84.9096V2.69612Z" fill="#4984EE"/>
<path d="M36.3794 2.69612V0H33.0841C31.5951 0 30.388 1.2071 30.388 2.69612V5.99138H33.0841V2.69612H36.3794Z" fill="#4984EE"/>
<path d="M33.0841 28.7586H30.388V32.0539C30.388 33.5429 31.5951 34.75 33.0841 34.75H36.3794V32.0539H33.0841V28.7586Z" fill="#4984EE"/>
<path d="M84.9096 32.0539V34.75H88.2048C89.6938 34.75 90.9009 33.5429 90.9009 32.0539V28.7586H88.2048V32.0539H84.9096Z" fill="#4984EE"/>
<path d="M39.3337 10.5149C40.5781 10.5149 41.6553 10.7223 42.5652 11.1371C43.4885 11.5519 44.1976 12.1406 44.6927 12.9033C45.1878 13.666 45.4354 14.5692 45.4354 15.6129C45.4354 16.6433 45.1878 17.5465 44.6927 18.3225C44.1976 19.0852 43.4885 19.674 42.5652 20.0888C41.6553 20.4902 40.5781 20.6909 39.3337 20.6909H36.5037V24.5647H33.2522V10.5149H39.3337ZM39.1531 18.0415C40.1299 18.0415 40.8725 17.8341 41.381 17.4193C41.8895 16.9912 42.1437 16.389 42.1437 15.6129C42.1437 14.8235 41.8895 14.2213 41.381 13.8065C40.8725 13.3783 40.1299 13.1643 39.1531 13.1643H36.5037V18.0415H39.1531Z" fill="#4984EE"/>
<path d="M56.3039 21.554H49.7808L48.5363 24.5647H45.2045L51.4667 10.5149H54.6781L60.9604 24.5647H57.5483L56.3039 21.554ZM55.2802 19.0852L53.0523 13.7062L50.8244 19.0852H55.2802Z" fill="#4984EE"/>
<path d="M71.7157 17.319H74.6862V23.0192C73.9235 23.5945 73.0404 24.0361 72.0368 24.3439C71.0332 24.6516 70.023 24.8055 69.0061 24.8055C67.5476 24.8055 66.2362 24.4978 65.0721 23.8822C63.908 23.2533 62.9914 22.3903 62.3224 21.2931C61.6667 20.1825 61.3389 18.9314 61.3389 17.5398C61.3389 16.1482 61.6667 14.9038 62.3224 13.8065C62.9914 12.6959 63.9147 11.8329 65.0922 11.2174C66.2697 10.5885 67.5944 10.274 69.0663 10.274C70.2973 10.274 71.4146 10.4814 72.4182 10.8962C73.4217 11.311 74.2647 11.9132 74.9471 12.7026L72.8597 14.6294C71.8562 13.5724 70.6452 13.0438 69.2268 13.0438C68.3303 13.0438 67.5342 13.2312 66.8384 13.6058C66.1426 13.9805 65.6007 14.509 65.2126 15.1914C64.8246 15.8739 64.6306 16.6566 64.6306 17.5398C64.6306 18.4095 64.8246 19.1856 65.2126 19.868C65.6007 20.5504 66.1359 21.0857 66.8183 21.4737C67.5141 21.8484 68.3036 22.0357 69.1867 22.0357C70.1234 22.0357 70.9663 21.835 71.7157 21.4336V17.319Z" fill="#4984EE"/>
<path d="M88.5851 21.9554V24.5647H77.7066V10.5149H88.3242V13.1241H80.938V16.1749H87.4611V18.7039H80.938V21.9554H88.5851Z" fill="#4984EE"/>
</svg>
