<?xml version="1.0" encoding="utf-8"?>
<!-- Generator: Adobe Illustrator 26.0.1, SVG Export Plug-In . SVG Version: 6.00 Build 0)  -->
<svg version="1.1" id="Layer_1" xmlns="http://www.w3.org/2000/svg" xmlns:xlink="http://www.w3.org/1999/xlink" x="0px" y="0px"
	 viewBox="0 0 33.5 28.8" style="enable-background:new 0 0 33.5 28.8;" xml:space="preserve">
<style type="text/css">
	.st0{fill:#CBC4BE;}
	.st1{fill:none;stroke:#CBC4BE;stroke-width:2;stroke-miterlimit:10;}
</style>
<path class="st0" d="M33,0.5"/>
<path class="st1" d="M33,0.5H4C2.1,0.5,0.5,2.1,0.5,4S2.1,7.5,4,7.5h25.5"/>
<path class="st1" d="M29.6,7.5C31.5,7.5,33,9,33,11s-1.6,3.5-3.5,3.5H4c-1.9,0-3.5,1.6-3.5,3.5s1.6,3.5,3.5,3.5h25.2"/>
<line class="st1" x1="1.2" y1="28.3" x2="0" y2="28.3"/>
<path class="st1" d="M29.2,21.4c1.9,0,3.5,1.6,3.5,3.5s-1.6,3.5-3.5,3.5l0,0H1.2"/>
</svg>
