<?xml version="1.0" encoding="utf-8"?>
<!-- Generator: Adobe Illustrator 26.0.1, SVG Export Plug-In . SVG Version: 6.00 Build 0)  -->
<svg version="1.1" id="Layer_1" xmlns="http://www.w3.org/2000/svg" xmlns:xlink="http://www.w3.org/1999/xlink" x="0px" y="0px"
	 viewBox="0 0 32.6 30.4" style="enable-background:new 0 0 32.6 30.4;" xml:space="preserve">
<style type="text/css">
	.st0{fill:none;stroke:#CBC4BE;stroke-width:2;stroke-miterlimit:10;}
</style>
<polyline class="st0" points="0,0.5 0,0.5 0,0.5 "/>
<path class="st0" d="M30,2.6L16.1,6.7"/>
<line class="st0" x1="32.1" y1="22" x2="32.1" y2="4.7"/>
<path class="st0" d="M3.5,19.1h8.4l18.4,4.8c0.6,0,1.1-0.2,1.5-0.6c0.3-0.4,0.4-0.8,0.4-1.3"/>
<line class="st0" x1="0.8" y1="9.8" x2="0.8" y2="16.4"/>
<path class="st0" d="M3.8,7.5c-0.9,0-1.8,0.3-2.4,1C1,8.9,0.8,9.4,0.8,10"/>
<polyline class="st0" points="11.8,29.1 11.8,7.4 3.5,7.4 "/>
<line class="st0" x1="7.2" y1="28.9" x2="10.8" y2="29.8"/>
<path class="st0" d="M6.4,22.8v5"/>
<path class="st0" d="M3.7,19.1c-0.9,0-1.7-0.3-2.3-1c-0.4-0.5-0.6-1.1-0.6-1.8"/>
<path class="st0" d="M29.3,2.8c0.5-0.2,1-0.2,1.5,0c1,0.5,1.5,1.5,1.4,2.6"/>
<path class="st0" d="M6.4,27.5c-0.1,0.6,0.2,1.3,0.9,1.4c0,0,0.1,0,0.1,0"/>
<path class="st0" d="M10.6,29.8c0.3,0.2,0.7,0.1,1-0.2c0.2-0.2,0.3-0.5,0.3-0.8"/>
</svg>
