<svg id="Layer_1" data-name="Layer 1" xmlns="http://www.w3.org/2000/svg" viewBox="0 0 30.11 29.54">
  <path d="M5.2,20.9l-2.8-.4A1.81,1.81,0,0,1,.9,18.4a1.64,1.64,0,0,1,.8-1.2l3.4-2.3a1.75,1.75,0,0,0,.5-2.4l-2-3.6a1.92,1.92,0,0,1,.7-2.4,2.2,2.2,0,0,1,1.4-.2L9.6,7.5a1.75,1.75,0,0,0,2.2-1.1l1.5-3.8a1.77,1.77,0,0,1,2.3-1,2,2,0,0,1,1,1l1.5,3.8a1.85,1.85,0,0,0,2.2,1.1l3.9-1.2a1.84,1.84,0,0,1,2.3,1.2,1.7,1.7,0,0,1-.2,1.4l-2,3.6a1.85,1.85,0,0,0,.5,2.4l3.4,2.3a1.89,1.89,0,0,1,.5,2.5,2,2,0,0,1-1.2.8l-4.1.6A1.83,1.83,0,0,0,21.9,23l.3,4.1A1.74,1.74,0,0,1,20.5,29a1.54,1.54,0,0,1-1.3-.5l-3-2.8a1.82,1.82,0,0,0-2.4,0l-3,2.8a1.75,1.75,0,0,1-2.5-.1,2.11,2.11,0,0,1-.5-1.3L8,24" transform="translate(0.13 -0.46)" style="fill:none;stroke:#d3ccc8;stroke-miterlimit:10;stroke-width:2px" />
  <circle cx="15.13" cy="15.84" r="2.8" style="fill:none;stroke:#d3ccc8;stroke-miterlimit:10;stroke-width:2px" />
</svg>