<svg width="136" height="35" viewBox="0 0 136 35" fill="none" xmlns="http://www.w3.org/2000/svg">
<path d="M43.5687 17.2587C44.3716 17.5129 45.0005 17.9411 45.4554 18.5432C45.9104 19.132 46.1378 19.8612 46.1378 20.731C46.1378 21.962 45.6561 22.912 44.6927 23.5811C43.7427 24.2367 42.3511 24.5646 40.5179 24.5646H33.2522V10.5148H40.1165C41.8292 10.5148 43.1405 10.8426 44.0504 11.4983C44.9737 12.1539 45.4353 13.0437 45.4353 14.1677C45.4353 14.8501 45.2681 15.459 44.9336 15.9942C44.6124 16.5294 44.1575 16.9509 43.5687 17.2587ZM36.4836 12.9635V16.2752H39.7151C40.5179 16.2752 41.1267 16.1347 41.5415 15.8537C41.9563 15.5727 42.1637 15.1579 42.1637 14.6093C42.1637 14.0607 41.9563 13.6526 41.5415 13.3849C41.1267 13.104 40.5179 12.9635 39.7151 12.9635H36.4836ZM40.2771 22.1159C41.1334 22.1159 41.7757 21.9754 42.2039 21.6944C42.6455 21.4134 42.8662 20.9785 42.8662 20.3898C42.8662 19.2256 42.0032 18.6436 40.2771 18.6436H36.4836V22.1159H40.2771Z" fill="#EB5647"/>
<path d="M55.4036 24.8054C53.9451 24.8054 52.6271 24.491 51.4496 23.8621C50.2855 23.2332 49.3689 22.3701 48.6999 21.2729C48.0442 20.1623 47.7164 18.9179 47.7164 17.5397C47.7164 16.1615 48.0442 14.9237 48.6999 13.8265C49.3689 12.7159 50.2855 11.8462 51.4496 11.2173C52.6271 10.5884 53.9451 10.2739 55.4036 10.2739C56.8621 10.2739 58.1734 10.5884 59.3376 11.2173C60.5017 11.8462 61.4183 12.7159 62.0873 13.8265C62.7563 14.9237 63.0909 16.1615 63.0909 17.5397C63.0909 18.9179 62.7563 20.1623 62.0873 21.2729C61.4183 22.3701 60.5017 23.2332 59.3376 23.8621C58.1734 24.491 56.8621 24.8054 55.4036 24.8054ZM55.4036 22.0356C56.2332 22.0356 56.9826 21.8483 57.6516 21.4736C58.3206 21.0856 58.8425 20.5503 59.2171 19.8679C59.6052 19.1855 59.7992 18.4094 59.7992 17.5397C59.7992 16.6699 59.6052 15.8938 59.2171 15.2114C58.8425 14.529 58.3206 14.0005 57.6516 13.6258C56.9826 13.2378 56.2332 13.0437 55.4036 13.0437C54.574 13.0437 53.8247 13.2378 53.1557 13.6258C52.4866 14.0005 51.9581 14.529 51.57 15.2114C51.1954 15.8938 51.0081 16.6699 51.0081 17.5397C51.0081 18.4094 51.1954 19.1855 51.57 19.8679C51.9581 20.5503 52.4866 21.0856 53.1557 21.4736C53.8247 21.8483 54.574 22.0356 55.4036 22.0356Z" fill="#EB5647"/>
<path d="M72.3386 24.8054C70.8801 24.8054 69.5621 24.491 68.3846 23.8621C67.2205 23.2332 66.3039 22.3701 65.6349 21.2729C64.9792 20.1623 64.6514 18.9179 64.6514 17.5397C64.6514 16.1615 64.9792 14.9237 65.6349 13.8265C66.3039 12.7159 67.2205 11.8462 68.3846 11.2173C69.5621 10.5884 70.8801 10.2739 72.3386 10.2739C73.7971 10.2739 75.1084 10.5884 76.2726 11.2173C77.4367 11.8462 78.3533 12.7159 79.0223 13.8265C79.6914 14.9237 80.0259 16.1615 80.0259 17.5397C80.0259 18.9179 79.6914 20.1623 79.0223 21.2729C78.3533 22.3701 77.4367 23.2332 76.2726 23.8621C75.1084 24.491 73.7971 24.8054 72.3386 24.8054ZM72.3386 22.0356C73.1682 22.0356 73.9176 21.8483 74.5866 21.4736C75.2556 21.0856 75.7775 20.5503 76.1521 19.8679C76.5402 19.1855 76.7342 18.4094 76.7342 17.5397C76.7342 16.6699 76.5402 15.8938 76.1521 15.2114C75.7775 14.529 75.2556 14.0005 74.5866 13.6258C73.9176 13.2378 73.1682 13.0437 72.3386 13.0437C71.509 13.0437 70.7597 13.2378 70.0907 13.6258C69.4216 14.0005 68.8931 14.529 68.5051 15.2114C68.1304 15.8938 67.9431 16.6699 67.9431 17.5397C67.9431 18.4094 68.1304 19.1855 68.5051 19.8679C68.8931 20.5503 69.4216 21.0856 70.0907 21.4736C70.7597 21.8483 71.509 22.0356 72.3386 22.0356Z" fill="#EB5647"/>
<path d="M87.5877 19.045L85.701 21.012V24.5646H82.4695V10.5148H85.701V17.078L91.923 10.5148H95.5358L89.7152 16.777L95.877 24.5646H92.0836L87.5877 19.045Z" fill="#EB5647"/>
<path d="M97.3269 10.5148H100.578V24.5646H97.3269V10.5148Z" fill="#EB5647"/>
<path d="M116.798 10.5148V24.5646H114.129L107.124 16.0343V24.5646H103.913V10.5148H106.602L113.587 19.045V10.5148H116.798Z" fill="#EB5647"/>
<path d="M129.616 17.3189H132.587V23.0191C131.824 23.5945 130.941 24.036 129.937 24.3438C128.934 24.6515 127.923 24.8054 126.907 24.8054C125.448 24.8054 124.137 24.4977 122.973 23.8821C121.808 23.2533 120.892 22.3902 120.223 21.293C119.567 20.1824 119.239 18.9313 119.239 17.5397C119.239 16.1481 119.567 14.9037 120.223 13.8064C120.892 12.6958 121.815 11.8328 122.993 11.2173C124.17 10.5884 125.495 10.2739 126.967 10.2739C128.198 10.2739 129.315 10.4813 130.319 10.8961C131.322 11.3109 132.165 11.9131 132.848 12.7025L130.76 14.6294C129.757 13.5723 128.546 13.0437 127.127 13.0437C126.231 13.0437 125.435 13.2311 124.739 13.6057C124.043 13.9804 123.501 14.5089 123.113 15.1913C122.725 15.8738 122.531 16.6565 122.531 17.5397C122.531 18.4094 122.725 19.1855 123.113 19.8679C123.501 20.5503 124.036 21.0856 124.719 21.4736C125.415 21.8483 126.204 22.0356 127.087 22.0356C128.024 22.0356 128.867 21.8349 129.616 21.4335V17.3189Z" fill="#EB5647"/>
<path d="M12.7853 24.5647L12.7652 16.1348L8.63058 23.0794H7.16539L3.05081 16.3154V24.5647H0V10.5149H2.68953L7.94816 19.2458L13.1265 10.5149H15.796L15.8361 24.5647H12.7853Z" fill="white"/>
<path d="M30.048 21.9554V24.5647H19.1695V10.5149H29.7871V13.1241H22.4009V16.1749H28.9241V18.7039H22.4009V21.9554H30.048Z" fill="white"/>
<path fill-rule="evenodd" clip-rule="evenodd" d="M129.545 2.69612H132.841V5.99138H135.537V2.69612C135.537 1.20709 134.33 0 132.841 0H129.545V2.69612ZM36.9785 2.69612V0H33.6832C32.1942 0 30.9871 1.2071 30.9871 2.69612V5.99138H33.6832V2.69612H36.9785ZM33.6832 28.7586H30.9871V32.0539C30.9871 33.5429 32.1942 34.75 33.6832 34.75H36.9785V32.0539H33.6832L33.6832 28.7586ZM129.545 32.0539V34.75H132.841C134.33 34.75 135.537 33.5429 135.537 32.0539V28.7586H132.841V32.0539H129.545Z" fill="#EB5647"/>
</svg>
