<svg width="116" height="35" viewBox="0 0 116 35" fill="none" xmlns="http://www.w3.org/2000/svg">
<path d="M12.7852 24.5647L12.7652 16.1348L8.63052 23.0794H7.16533L3.05075 16.3154V24.5647H-6.10352e-05V10.5149H2.68947L7.9481 19.2458L13.1265 10.5149H15.7959L15.8361 24.5647H12.7852Z" fill="white"/>
<path d="M30.048 21.9554V24.5647H19.1694V10.5149H29.7871V13.1241H22.4009V16.1749H28.924V18.7039H22.4009V21.9554H30.048Z" fill="white"/>
<path d="M39.3336 10.5148C40.5781 10.5148 41.6552 10.7222 42.5651 11.137C43.4884 11.5518 44.1975 12.1406 44.6926 12.9033C45.1877 13.666 45.4353 14.5692 45.4353 15.6129C45.4353 16.6432 45.1877 17.5464 44.6926 18.3225C44.1975 19.0852 43.4884 19.674 42.5651 20.0888C41.6552 20.4902 40.5781 20.6909 39.3336 20.6909H36.5036V24.5646H33.2521V10.5148H39.3336ZM39.153 18.0415C40.1298 18.0415 40.8724 17.8341 41.3809 17.4193C41.8894 16.9911 42.1436 16.389 42.1436 15.6129C42.1436 14.8234 41.8894 14.2213 41.3809 13.8065C40.8724 13.3783 40.1298 13.1642 39.153 13.1642H36.5036V18.0415H39.153Z" fill="#EB5647"/>
<path d="M56.7083 24.5646L53.9987 20.6508H53.8382H51.0081V24.5646H47.7566V10.5148H53.8382C55.0826 10.5148 56.1597 10.7222 57.0696 11.137C57.9929 11.5518 58.7021 12.1406 59.1972 12.9033C59.6922 13.666 59.9398 14.5692 59.9398 15.6129C59.9398 16.6566 59.6856 17.5598 59.1771 18.3225C58.682 19.0718 57.9728 19.6472 57.0495 20.0486L60.2007 24.5646H56.7083ZM56.6481 15.6129C56.6481 14.8234 56.3939 14.2213 55.8854 13.8065C55.377 13.3783 54.6343 13.1642 53.6575 13.1642H51.0081V18.0616H53.6575C54.6343 18.0616 55.377 17.8475 55.8854 17.4193C56.3939 16.9911 56.6481 16.389 56.6481 15.6129Z" fill="#EB5647"/>
<path d="M69.3201 24.8055C67.8616 24.8055 66.5436 24.491 65.366 23.8621C64.2019 23.2332 63.2853 22.3702 62.6163 21.273C61.9606 20.1624 61.6328 18.9179 61.6328 17.5397C61.6328 16.1615 61.9606 14.9238 62.6163 13.8266C63.2853 12.716 64.2019 11.8462 65.366 11.2173C66.5436 10.5884 67.8616 10.274 69.3201 10.274C70.7786 10.274 72.0899 10.5884 73.254 11.2173C74.4181 11.8462 75.3347 12.716 76.0037 13.8266C76.6728 14.9238 77.0073 16.1615 77.0073 17.5397C77.0073 18.9179 76.6728 20.1624 76.0037 21.273C75.3347 22.3702 74.4181 23.2332 73.254 23.8621C72.0899 24.491 70.7786 24.8055 69.3201 24.8055ZM69.3201 22.0357C70.1497 22.0357 70.899 21.8483 71.568 21.4737C72.2371 21.0856 72.7589 20.5504 73.1336 19.868C73.5216 19.1856 73.7156 18.4095 73.7156 17.5397C73.7156 16.67 73.5216 15.8939 73.1336 15.2115C72.7589 14.5291 72.2371 14.0005 71.568 13.6259C70.899 13.2378 70.1497 13.0438 69.3201 13.0438C68.4905 13.0438 67.7411 13.2378 67.0721 13.6259C66.4031 14.0005 65.8745 14.5291 65.4865 15.2115C65.1118 15.8939 64.9245 16.67 64.9245 17.5397C64.9245 18.4095 65.1118 19.1856 65.4865 19.868C65.8745 20.5504 66.4031 21.0856 67.0721 21.4737C67.7411 21.8483 68.4905 22.0357 69.3201 22.0357Z" fill="#EB5647"/>
<path d="M92.2363 24.5646L92.2162 16.1348L88.0815 23.0794H86.6163L82.5018 16.3154V24.5646H79.451V10.5148H82.1405L87.3991 19.2458L92.5775 10.5148H95.2469L95.2871 24.5646H92.2363Z" fill="#EB5647"/>
<path d="M105.425 24.8055C103.966 24.8055 102.648 24.491 101.471 23.8621C100.306 23.2332 99.3898 22.3702 98.7208 21.273C98.0651 20.1624 97.7373 18.9179 97.7373 17.5397C97.7373 16.1615 98.0651 14.9238 98.7208 13.8266C99.3898 12.716 100.306 11.8462 101.471 11.2173C102.648 10.5884 103.966 10.274 105.425 10.274C106.883 10.274 108.194 10.5884 109.358 11.2173C110.523 11.8462 111.439 12.716 112.108 13.8266C112.777 14.9238 113.112 16.1615 113.112 17.5397C113.112 18.9179 112.777 20.1624 112.108 21.273C111.439 22.3702 110.523 23.2332 109.358 23.8621C108.194 24.491 106.883 24.8055 105.425 24.8055ZM105.425 22.0357C106.254 22.0357 107.003 21.8483 107.673 21.4737C108.342 21.0856 108.863 20.5504 109.238 19.868C109.626 19.1856 109.82 18.4095 109.82 17.5397C109.82 16.67 109.626 15.8939 109.238 15.2115C108.863 14.5291 108.342 14.0005 107.673 13.6259C107.003 13.2378 106.254 13.0438 105.425 13.0438C104.595 13.0438 103.846 13.2378 103.177 13.6259C102.508 14.0005 101.979 14.5291 101.591 15.2115C101.216 15.8939 101.029 16.67 101.029 17.5397C101.029 18.4095 101.216 19.1856 101.591 19.868C101.979 20.5504 102.508 21.0856 103.177 21.4737C103.846 21.8483 104.595 22.0357 105.425 22.0357Z" fill="#EB5647"/>
<path fill-rule="evenodd" clip-rule="evenodd" d="M110.775 2.69612H113.447V5.99138H115.634V2.69612C115.634 1.20709 114.655 0 113.447 0H110.775V2.69612ZM35.7139 2.69612V0H33.0418C31.8344 0 30.8555 1.2071 30.8555 2.69612V5.99138H33.0418V2.69612H35.7139ZM33.0418 28.7586H30.8555V32.0539C30.8555 33.5429 31.8344 34.75 33.0418 34.75H35.7139V32.0539H33.0418L33.0418 28.7586ZM110.775 32.0539V34.75H113.447C114.655 34.75 115.634 33.5429 115.634 32.0539V28.7586H113.447V32.0539H110.775Z" fill="#EB5647"/>
</svg>
