<svg width="152" height="35" viewBox="0 0 152 35" fill="none" xmlns="http://www.w3.org/2000/svg">
<path d="M43.0409 17.9347L48.3369 23.2307L46.4304 25.1372L41.1344 19.8412L43.0409 17.9347Z" fill="#F5BF00"/>
<path fill-rule="evenodd" clip-rule="evenodd" d="M40.426 21.8699C42.8251 21.8699 44.77 19.925 44.77 17.5259C44.77 15.1268 42.8251 13.1819 40.426 13.1819C38.0268 13.1819 36.082 15.1268 36.082 17.5259C36.082 19.925 38.0268 21.8699 40.426 21.8699ZM40.426 24.5662C44.3142 24.5662 47.4663 21.4141 47.4663 17.5259C47.4663 13.6376 44.3142 10.4856 40.426 10.4856C36.5377 10.4856 33.3857 13.6376 33.3857 17.5259C33.3857 21.4141 36.5377 24.5662 40.426 24.5662Z" fill="#F5BF00"/>
<path d="M58.9833 24.5662L56.2735 20.6521H56.1129H53.2827V24.5662H50.031V10.5156H56.1129C57.3574 10.5156 58.4346 10.723 59.3446 11.1378C60.2679 11.5526 60.9771 12.1414 61.4722 12.9042C61.9673 13.6669 62.2149 14.5702 62.2149 15.6139C62.2149 16.6577 61.9607 17.5609 61.4522 18.3237C60.957 19.0731 60.2478 19.6485 59.3245 20.0499L62.4758 24.5662H58.9833ZM58.923 15.6139C58.923 14.8244 58.6688 14.2223 58.1603 13.8074C57.6518 13.3792 56.9091 13.1651 55.9323 13.1651H53.2827V18.0628H55.9323C56.9091 18.0628 57.6518 17.8487 58.1603 17.4204C58.6688 16.9922 58.923 16.3901 58.923 15.6139Z" fill="#F5BF00"/>
<path d="M76.3593 24.5662L73.6495 20.6521H73.489H70.6588V24.5662H67.407V10.5156H73.489C74.7334 10.5156 75.8107 10.723 76.7206 11.1378C77.6439 11.5526 78.3531 12.1414 78.8483 12.9042C79.3434 13.6669 79.5909 14.5702 79.5909 15.6139C79.5909 16.6577 79.3367 17.5609 78.8282 18.3237C78.3331 19.0731 77.6239 19.6485 76.7005 20.0499L79.8519 24.5662H76.3593ZM76.2991 15.6139C76.2991 14.8244 76.0448 14.2223 75.5363 13.8074C75.0278 13.3792 74.2852 13.1651 73.3083 13.1651H70.6588V18.0628H73.3083C74.2852 18.0628 75.0278 17.8487 75.5363 17.4204C76.0448 16.9922 76.2991 16.3901 76.2991 15.6139Z" fill="white"/>
<path d="M93.0464 21.9568V24.5662H82.1673V10.5156H92.7855V13.125H85.3989V16.176H91.9224V18.7051H85.3989V21.9568H93.0464Z" fill="white"/>
<path d="M108.946 10.5156L102.864 24.5662H99.6529L93.5911 10.5156H97.1037L101.379 20.5517L105.715 10.5156H108.946Z" fill="white"/>
<path d="M110.12 10.5156H113.371V24.5662H110.12V10.5156Z" fill="white"/>
<path d="M127.585 21.9568V24.5662H116.706V10.5156H127.324V13.125H119.937V16.176H126.461V18.7051H119.937V21.9568H127.585Z" fill="white"/>
<path d="M151.213 10.5156L146.616 24.5662H143.124L140.032 15.0519L136.841 24.5662H133.368L128.752 10.5156H132.124L135.295 20.3911L138.607 10.5156H141.618L144.83 20.4714L148.102 10.5156H151.213Z" fill="white"/>
<path d="M12.7861 24.5662L12.766 16.1358L8.6311 23.0808H7.16582L3.05099 16.3165V24.5662H0V10.5156H2.68969L7.94864 19.247L13.1273 10.5156H15.7969L15.8371 24.5662H12.7861Z" fill="white"/>
<path d="M30.0498 21.9568V24.5662H19.1706V10.5156H29.7889V13.125H22.4023V16.176H28.9258V18.7051H22.4023V21.9568H30.0498Z" fill="white"/>
<path fill-rule="evenodd" clip-rule="evenodd" d="M59.7493 2.69628H63.0447V5.99174H65.741V2.69628C65.741 1.20717 64.5339 0 63.0447 0H59.7493V2.69628ZM65.741 28.7603H63.0447V32.0558H59.7493V34.7521H63.0447C64.5339 34.7521 65.741 33.5449 65.741 32.0558V28.7603ZM36.9807 34.7521V32.0558H33.6852V28.7603H30.989V32.0558C30.989 33.5449 32.1961 34.7521 33.6852 34.7521H36.9807ZM30.989 5.99174H33.6852V2.69628H36.9807L36.9807 0H33.6852C32.1961 0 30.989 1.20717 30.989 2.69628V5.99174Z" fill="#F5BF00"/>
</svg>
