<svg width="157" height="50" viewBox="0 0 157 50" fill="none" xmlns="http://www.w3.org/2000/svg">
<path d="M18.3961 35.3448L18.3672 23.2155L12.4181 33.2077H10.3099L4.38966 23.4754V35.3448H0V15.1293H3.86983L11.4362 27.6918L18.8871 15.1293H22.728L22.7858 35.3448H18.3961Z" fill="#3E4857"/>
<path d="M43.2346 31.5905V35.3448H27.582V15.1293H42.8592V18.8836H32.2316V23.2732H41.6173V26.912H32.2316V31.5905H43.2346Z" fill="#3E4857"/>
<path d="M148.034 3.87931H152.775V8.62069H156.655V3.87931C156.655 1.73683 154.918 0 152.775 0H148.034V3.87931Z" fill="white"/>
<path d="M53.2065 3.87931V0H48.4651C46.3226 0 44.5858 1.73683 44.5858 3.87931V8.62069H48.4651V3.87931H53.2065Z" fill="white"/>
<path d="M48.4651 41.3793H44.5858V46.1207C44.5858 48.2632 46.3226 50 48.4651 50H53.2065V46.1207H48.4651V41.3793Z" fill="white"/>
<path d="M148.034 46.1207V50H152.775C154.918 50 156.655 48.2632 156.655 46.1207V41.3793H152.775V46.1207H148.034Z" fill="white"/>
<path d="M52.0323 18.9414H45.5634V15.1293H63.1798V18.9414H56.7108V35.3448H52.0323V18.9414Z" fill="white"/>
<path d="M65.697 15.1293H70.3754V35.3448H65.697V15.1293Z" fill="white"/>
<path d="M84.8476 35.6914C82.7875 35.6914 80.92 35.2486 79.245 34.3629C77.5892 33.458 76.2801 32.2162 75.3174 30.6375C74.374 29.0395 73.9023 27.2394 73.9023 25.2371C73.9023 23.2348 74.374 21.4443 75.3174 19.8655C76.2801 18.2675 77.5892 17.0257 79.245 16.1401C80.92 15.2352 82.7972 14.7828 84.8765 14.7828C86.6285 14.7828 88.2072 15.0908 89.6127 15.7069C91.0374 16.323 92.2311 17.2086 93.1937 18.3638L90.1903 21.1362C88.8233 19.5575 87.129 18.7681 85.1075 18.7681C83.8561 18.7681 82.7394 19.0473 81.7575 19.6056C80.7756 20.1447 80.0055 20.9052 79.4471 21.8871C78.9081 22.869 78.6385 23.9856 78.6385 25.2371C78.6385 26.4885 78.9081 27.6052 79.4471 28.5871C80.0055 29.569 80.7756 30.3391 81.7575 30.8974C82.7394 31.4365 83.8561 31.706 85.1075 31.706C87.129 31.706 88.8233 30.907 90.1903 29.3091L93.1937 32.0815C92.2311 33.2559 91.0374 34.1511 89.6127 34.7672C88.188 35.3833 86.5996 35.6914 84.8476 35.6914Z" fill="white"/>
<path d="M103.717 27.403L101.003 30.2332V35.3448H96.3531V15.1293H101.003V24.5728L109.955 15.1293H115.153L106.778 24.1397L115.644 35.3448H110.186L103.717 27.403Z" fill="white"/>
<path d="M133.383 31.5905V35.3448H117.731V15.1293H133.008V18.8836H122.38V23.2733H131.766V26.9121H122.38V31.5905H133.383Z" fill="white"/>
<path d="M141.293 18.9414H134.824V15.1293H152.441V18.9414H145.972V35.3448H141.293V18.9414Z" fill="white"/>
</svg>
