<svg width="10" height="12" viewBox="0 0 10 12" fill="none" xmlns="http://www.w3.org/2000/svg">
<path d="M4.90909 0L0 2.18182V5.45455C0 8.48182 2.09455 11.3127 4.90909 12C7.72364 11.3127 9.81818 8.48182 9.81818 5.45455V2.18182L4.90909 0ZM8.72727 5.45455C8.72727 6.46364 8.44909 7.44545 7.97455 8.29636L7.18364 7.50546C7.88727 6.44727 7.76727 5.00727 6.83454 4.07455C5.77091 3.01091 4.04182 3.01091 2.97818 4.07455C1.91455 5.13818 1.91455 6.86727 2.97818 7.93091C3.91091 8.86364 5.35091 8.97818 6.40909 8.28L7.34727 9.21818C6.69818 9.99273 5.85818 10.5873 4.90909 10.8764C2.71636 10.1945 1.09091 7.92 1.09091 5.45455V2.89091L4.90909 1.19455L8.72727 2.89091V5.45455ZM4.90909 7.63636C4.00364 7.63636 3.27273 6.90545 3.27273 6C3.27273 5.09455 4.00364 4.36364 4.90909 4.36364C5.81455 4.36364 6.54545 5.09455 6.54545 6C6.54545 6.90545 5.81455 7.63636 4.90909 7.63636Z" fill="#AEAEAE"/>
</svg>
