<?xml version="1.0" encoding="utf-8"?>
<!-- Generator: Adobe Illustrator 26.0.1, SVG Export Plug-In . SVG Version: 6.00 Build 0)  -->
<svg version="1.1" id="Layer_1" xmlns="http://www.w3.org/2000/svg" xmlns:xlink="http://www.w3.org/1999/xlink" x="0px" y="0px"
	 viewBox="0 0 32.5 24.5" style="enable-background:new 0 0 32.5 24.5;" xml:space="preserve">
<style type="text/css">
	.st0{fill:none;stroke:#FFFFFF;stroke-width:2;stroke-miterlimit:10;}
</style>
<polyline class="st0" points="17.1,0.7 0.5,0.7 0.5,23.8 17.1,23.8 "/>
<polyline class="st0" points="25.2,23.8 32,23.8 32,0.7 25.2,0.7 "/>
<path class="st0" d="M25.2,0c0.3,2.2-1.1,4.2-3.3,4.6s-4.2-1.1-4.6-3.3c-0.1-0.4-0.1-0.8,0-1.3"/>
<path class="st0" d="M17.2,24.5c-0.3-2.2,1.1-4.2,3.3-4.6c2.2-0.3,4.2,1.1,4.6,3.3c0.1,0.4,0.1,0.8,0,1.3"/>
<line class="st0" x1="21.2" y1="8.3" x2="21.2" y2="10.9"/>
<line class="st0" x1="21.3" y1="13.5" x2="21.3" y2="16.1"/>
</svg>
