<?xml version="1.0" encoding="utf-8"?>
<!-- Generator: Adobe Illustrator 26.0.1, SVG Export Plug-In . SVG Version: 6.00 Build 0)  -->
<svg version="1.1" id="Layer_1" xmlns="http://www.w3.org/2000/svg" xmlns:xlink="http://www.w3.org/1999/xlink" x="0px" y="0px"
	 viewBox="0 0 33.5 28.8" style="enable-background:new 0 0 33.5 28.8;" xml:space="preserve">
<style type="text/css">
	.st0{fill:#FFFFFF;}
	.st1{fill:none;stroke:#FFFFFF;stroke-width:2;stroke-miterlimit:10;}
</style>
<g>
	<path class="st0" d="M31.3,2"/>
	<path class="st1" d="M31.3,2H5.4C3.6,2,2.2,3.4,2.2,5.1s1.4,3.1,3.1,3.1h22.8"/>
	<path class="st1" d="M28.2,8.2c1.7,0,3.1,1.4,3.1,3.1c0,1.7-1.4,3.1-3.1,3.1H5.4c-1.7,0-3.1,1.4-3.1,3.1c0,1.7,1.4,3.1,3.1,3.1
		h22.5"/>
	<line class="st1" x1="2.8" y1="26.8" x2="1.8" y2="26.8"/>
	<path class="st1" d="M27.9,20.6c1.7,0,3.1,1.4,3.1,3.1s-1.4,3.1-3.1,3.1l0,0H2.8"/>
</g>
</svg>
